<svg width="0" height="0" class="hidden">
  <symbol fill="none" xmlns="http://www.w3.org/2000/svg" viewBox="0 0 43 43" id="advantages-4">
    <g clip-path="url(#clip0_59_743)" fill="#fff">
      <path d="M33.159 21.503v-1.265a.63.63 0 10-1.26 0v8.463c-.443.053-.904.102-1.383.15a.63.63 0 00-.569.627v4.241a.63.63 0 00.692.627 69.78 69.78 0 001.26-.135v3.457H11.1v-3.455c2.959.343 6.293.535 9.77.556v1.323a.63.63 0 001 .51l5.599-4.073a.63.63 0 000-1.018l-5.6-4.073a.63.63 0 00-1 .51v1.32c-3.487-.022-6.825-.217-9.769-.565v-8.466a.63.63 0 10-1.26 0v1.266C5.225 22.127 0 23.344 0 25.657V29.9c0 1.529 2.164 2.712 6.617 3.617a50.32 50.32 0 003.224.538v6.62A2.33 2.33 0 0012.168 43h18.664a2.33 2.33 0 002.327-2.327v-6.62c2.434-.33 4.521-.762 6.122-1.27C41.784 31.987 43 31.044 43 29.898v-4.242c0-2.313-5.225-3.53-9.841-4.154zM6.868 28.039a33.904 33.904 0 01-1.18-.26 43.38 43.38 0 014.153-.762v1.524a48.613 48.613 0 01-2.973-.502zm-3.32-3.879c1.535-.55 3.7-1.026 6.293-1.385v2.97c-2.588.35-4.789.82-6.412 1.366-1.65-.608-2.17-1.168-2.17-1.454 0-.07.065-.7 2.288-1.497zM1.26 29.9v-2.424c1.08.695 2.858 1.29 5.357 1.799 3.982.81 9.268 1.255 14.883 1.255a.63.63 0 00.63-.63v-.714l3.898 2.835-3.898 2.835v-.714a.63.63 0 00-.63-.63c-5.534 0-10.73-.437-14.632-1.23C2.432 31.38 1.26 30.33 1.26 29.9zm30.639 10.774c0 .589-.479 1.067-1.067 1.067H12.168a1.068 1.068 0 01-1.067-1.067v-1.745h20.798v1.745zm1.26-13.656a43.4 43.4 0 014.146.76 42.161 42.161 0 01-4.146.763v-1.523zM41.74 29.9c0 .663-2.594 2.267-10.533 3.122v-2.975c3.277-.347 6.06-.866 8.075-1.505 1.04-.33 1.858-.686 2.458-1.072v2.43zm-2.182-2.792c-1.622-.544-3.818-1.012-6.4-1.362v-2.97c2.593.36 4.76.835 6.295 1.385 2.223.797 2.287 1.428 2.287 1.497 0 .324-.62.873-2.182 1.45zm-29.087-9.215a.63.63 0 00.63-.63V5.332h4.345c.059 0 .114.023.155.064l.69.69c.28.28.651.434 1.046.434h8.29a1.47 1.47 0 001.045-.433l.691-.69a.22.22 0 01.154-.065H31.9v11.933a.63.63 0 001.26 0V2.327A2.33 2.33 0 0030.832 0H12.168A2.33 2.33 0 009.84 2.327v14.936c0 .348.282.63.63.63zm.63-15.566c0-.589.479-1.067 1.067-1.067h18.664c.589 0 1.067.478 1.067 1.067v1.745h-4.382a1.47 1.47 0 00-1.045.433l-.69.691a.217.217 0 01-.155.064h-8.29a.217.217 0 01-.155-.064l-.69-.69c-.28-.28-.65-.434-1.046-.434h-4.345V2.327z"></path>
      <path d="M19.124 3.939a.848.848 0 100-1.697.848.848 0 000 1.697zm2.206-.219h3.394a.63.63 0 000-1.26H21.33a.63.63 0 100 1.26zm14.023 6.227a.627.627 0 00.864-.217l.663-1.106c.569 2.445.596 5.746-.55 8.584a.636.636 0 00.306.8c.325.16.728.006.863-.329 1.299-3.218 1.203-6.707.632-9.232l.946.567a.63.63 0 00.647-1.081l-2.328-1.396a.63.63 0 00-.864.217l-1.396 2.328a.63.63 0 00.217.865zM3.615 16.588l2.328 1.396a.634.634 0 00.864-.217l1.396-2.329a.63.63 0 00-1.08-.647l-.663 1.106c-.57-2.445-.597-5.746.548-8.584a.63.63 0 10-1.168-.471c-1.298 3.218-1.202 6.707-.632 9.232l-.946-.567a.63.63 0 00-.647 1.08zM21.5 15.356a2.33 2.33 0 00-2.327 2.326A2.33 2.33 0 0021.5 20.01a2.33 2.33 0 002.327-2.327 2.33 2.33 0 00-2.327-2.326zm0 3.393a1.068 1.068 0 010-2.134 1.068 1.068 0 010 2.134z"></path>
      <path d="M29.139 15.231l-1.697-2.939a.63.63 0 00-.86-.23l-1.72.993a5.674 5.674 0 00-1.035-.599v-2.07a.63.63 0 00-.63-.63h-3.394a.63.63 0 00-.63.63v2.07c-.364.163-.71.363-1.034.599l-1.794-1.036a.63.63 0 00-.86.23l-1.697 2.94a.63.63 0 00.23.86l1.794 1.036a5.698 5.698 0 000 1.195l-1.794 1.035a.63.63 0 00-.23.86l1.696 2.94a.63.63 0 00.86.23l1.795-1.035c.323.236.67.436 1.034.598v1.986c0 .347.282.63.63.63h3.394a.63.63 0 00.63-.63v-1.986c.364-.162.71-.362 1.034-.598l1.72.993a.63.63 0 00.861-.23l1.697-2.94a.63.63 0 00-.23-.86l-1.72-.993a5.698 5.698 0 000-1.195l1.72-.993a.63.63 0 00.23-.86zm-2.95.976a.63.63 0 00-.304.66 4.51 4.51 0 010 1.63.63.63 0 00.304.66l1.544.892-1.067 1.848-1.544-.892a.63.63 0 00-.725.067c-.42.359-.894.633-1.41.816a.63.63 0 00-.42.594v1.782h-2.134v-1.782a.63.63 0 00-.42-.594 4.435 4.435 0 01-1.41-.816.63.63 0 00-.725-.067l-1.618.934-1.067-1.848 1.618-.933a.63.63 0 00.304-.66 4.51 4.51 0 010-1.631.63.63 0 00-.304-.66l-1.618-.934 1.067-1.848 1.618.935a.63.63 0 00.725-.067c.42-.36.894-.634 1.41-.816a.63.63 0 00.42-.594v-1.867h2.134v1.867a.63.63 0 00.42.594c.516.182.99.457 1.41.816a.63.63 0 00.725.067l1.544-.892 1.067 1.848-1.544.891z"></path>
    </g>
    <defs>
      <clipPath id="clip0_59_743">
        <path fill="#fff" d="M0 0h43v43H0z"></path>
      </clipPath>
    </defs>
  </symbol>
  <symbol fill="none" xmlns="http://www.w3.org/2000/svg" viewBox="0 0 30 30" id="advantages-5">
    <g clip-path="url(#clip0_59_656)" fill="#fff">
      <path d="M26.117 21.742a3.012 3.012 0 00.735-1.973 3.013 3.013 0 10-6.03 0 3.013 3.013 0 005.294 1.973zm-4.415-1.973a2.134 2.134 0 114.27-.002 2.134 2.134 0 01-4.27.003z"></path>
      <path d="M27.9 15.739a5.695 5.695 0 00-3.925-1.698 5.689 5.689 0 00-4.141 1.629 5.687 5.687 0 00-1.727 4.1c0 .744.142 1.47.422 2.157a.44.44 0 00.815-.331 4.82 4.82 0 01-.357-1.826c0-1.318.52-2.55 1.462-3.47a4.815 4.815 0 013.506-1.38c1.25.03 2.43.54 3.32 1.438a4.823 4.823 0 011.412 3.333 4.81 4.81 0 01-.957 2.973l-2.392 3.298a5.229 5.229 0 00-.883 1.976l-.179.829a.451.451 0 01-.439.353.451.451 0 01-.438-.354l-.179-.828a5.229 5.229 0 00-.883-1.976l-2.066-2.85a.44.44 0 00-.712.517l2.066 2.849c.359.495.606 1.049.735 1.646l.18.828A1.335 1.335 0 0023.836 30c.621 0 1.167-.44 1.299-1.048l.179-.828a4.352 4.352 0 01.735-1.646l2.388-3.294a5.679 5.679 0 001.129-3.507 5.698 5.698 0 00-1.667-3.938zM5.107 7.203a2.5 2.5 0 002.271-3.55.44.44 0 10-.798.37 1.62 1.62 0 01-1.473 2.301A1.624 1.624 0 013.881 3.64a1.621 1.621 0 011.474-.542.44.44 0 10.133-.869 2.5 2.5 0 00-2.882 2.473 2.504 2.504 0 002.501 2.501z"></path>
      <path d="M3.265 10.124c.28.387.473.819.574 1.285l.144.664c.113.526.586.908 1.125.908.538 0 1.011-.382 1.125-.908l.143-.664c.1-.466.294-.898.574-1.285l1.912-2.636a4.634 4.634 0 00.92-2.862 4.65 4.65 0 00-1.36-3.213A4.648 4.648 0 005.22.028a4.64 4.64 0 00-3.379 1.329A4.64 4.64 0 00.432 4.702c0 1.012.319 1.976.918 2.782l1.915 2.64zm-.81-8.138A3.767 3.767 0 015.2.906a3.772 3.772 0 012.6 1.126A3.774 3.774 0 018.902 4.64a3.766 3.766 0 01-.75 2.328l-1.915 2.64a4.273 4.273 0 00-.722 1.616l-.143.663a.273.273 0 01-.265.214.273.273 0 01-.266-.214l-.143-.663a4.273 4.273 0 00-.722-1.616L2.06 6.964a3.764 3.764 0 01-.747-2.262c0-1.031.406-1.996 1.144-2.716zm22.821 3.051a.44.44 0 10.649.593l.007-.008.031-.034a2.12 2.12 0 00-1.601-3.505c-.61 0-1.19.263-1.593.723a.44.44 0 00.661.58 1.239 1.239 0 011.868 1.626l-.022.025z"></path>
      <path d="M21.049 2.367a.44.44 0 00.614-.1A3.322 3.322 0 0124.443.88c.856.02 1.663.37 2.273.985.61.615.954 1.426.967 2.282a3.297 3.297 0 01-.657 2.038l-.454.627a.44.44 0 10.712.516l.451-.622a4.164 4.164 0 00.828-2.573 4.178 4.178 0 00-1.222-2.887A4.177 4.177 0 0024.463 0a4.204 4.204 0 00-3.515 1.752c-.039.054-.154.33.03.551a.524.524 0 00.07.063zm-.719 23.969a.438.438 0 00-.768-.295c-.28.313-.57.6-.866.855-.62.214-1.256.378-1.902.49.49-1.055.911-2.506 1.233-4.263a.44.44 0 10-.865-.158c-.363 1.98-.866 3.586-1.428 4.56a12.782 12.782 0 01-2.222 0c-.648-1.122-1.183-2.997-1.547-5.29a32.88 32.88 0 005.157.013.44.44 0 00-.066-.877 32.52 32.52 0 01-5.221-.03 47.54 47.54 0 01-.395-5.813h7.132a.44.44 0 00.114-.864 48.606 48.606 0 00-.371-5.737c1.468.172 2.863.445 4.138.808.27.975.468 1.999.584 3.043a.44.44 0 00.874-.097 20.41 20.41 0 00-.468-2.638c1.195.406 2.258.897 3.144 1.462.221.738.374 1.5.455 2.278a.44.44 0 10.875-.09A13.333 13.333 0 0023.6 5.184a13.335 13.335 0 00-8.977-3.463c-1.357 0-2.696.203-3.98.603a.44.44 0 00.262.84 12.398 12.398 0 011.548-.375c-.583 1.257-1.064 3.066-1.396 5.237-.5.055-.996.12-1.484.198a.44.44 0 00.139.869c.402-.065.808-.12 1.22-.169-.071.55-.132 1.118-.184 1.703a.44.44 0 10.877.077c.056-.644.126-1.27.206-1.87a32.196 32.196 0 015.581 0c.238 1.776.377 3.76.394 5.813h-6.365c.006-.7.025-1.4.058-2.086a.44.44 0 00-.878-.043c-.034.7-.053 1.414-.06 2.129H6.09a23.9 23.9 0 01.012-.395.44.44 0 00-.88-.035c-.005.149-.01.291-.012.43H2.145c.04-1.164.241-2.31.6-3.413a.44.44 0 00-.838-.271 13.356 13.356 0 00-.65 4.124c0 3.57 1.391 6.926 3.916 9.45a13.278 13.278 0 009.45 3.915c2.017 0 3.956-.438 5.763-1.302a.44.44 0 00-.056-.815zM18.19 8.028c-.33-2.15-.806-3.968-1.395-5.236a12.42 12.42 0 011.905.493c1.097.945 2.067 2.28 2.81 3.869.235.505.448 1.038.637 1.59a28.106 28.106 0 00-3.958-.716zm7.938 2.2a17.74 17.74 0 00-2.965-1.196 17.187 17.187 0 00-.857-2.25 13.91 13.91 0 00-1.542-2.567 12.496 12.496 0 015.364 6.012zM14.623 7.834c-.897 0-1.786.036-2.66.106.37-2.31.914-4.186 1.55-5.289a12.66 12.66 0 012.222 0c.648 1.121 1.183 2.997 1.547 5.29-.87-.07-1.76-.107-2.659-.107zm-2.17 19.55a12.375 12.375 0 01-1.907-.494c-1.49-1.284-2.675-3.195-3.447-5.458a28.07 28.07 0 003.959.716c.328 2.151.806 3.969 1.394 5.237zm-1.521-6.135a26.414 26.414 0 01-4.14-.809 20.049 20.049 0 01-.704-4.912h4.473c.016 2.025.146 3.967.37 5.721zm-8.786-5.721h3.063c.032 1.597.238 3.15.597 4.605-1.195-.405-2.258-.896-3.144-1.46a12.432 12.432 0 01-.516-3.145zm.977 4.423a17.75 17.75 0 002.962 1.193c.56 1.832 1.372 3.475 2.388 4.807a12.564 12.564 0 01-5.35-6z"></path>
    </g>
    <defs>
      <clipPath id="clip0_59_656">
        <path fill="#fff" d="M0 0h30v30H0z"></path>
      </clipPath>
    </defs>
  </symbol>
  <symbol fill="none" xmlns="http://www.w3.org/2000/svg" viewBox="0 0 31 31" id="advantages-6">
    <path d="M18.528 19.535a1.4 1.4 0 001.01-.426l2.38-2.44a1.413 1.413 0 00-.025-1.995 1.413 1.413 0 00-1.995.025L18.5 16.13l-.244-.238a1.413 1.413 0 00-1.996.028 1.413 1.413 0 00.028 1.996l1.255 1.22c.265.258.614.4.984.4zm-1.614-2.98a.502.502 0 01.708-.01l.57.554c.18.175.468.172.644-.008l1.713-1.757a.502.502 0 01.718.7l-2.38 2.44a.504.504 0 01-.709.01l-1.255-1.22a.502.502 0 01-.01-.71z" fill="#fff"></path>
    <path d="M15.01 19.845a.455.455 0 00-.726.548c.165.22.349.43.545.626a5.885 5.885 0 004.188 1.735c1.582 0 3.07-.616 4.189-1.735a5.884 5.884 0 001.735-4.188c0-1.582-.616-3.07-1.735-4.188a5.931 5.931 0 00-8.377 0 5.905 5.905 0 00-1.455 5.994.455.455 0 00.867-.277 4.998 4.998 0 011.231-5.074 5.02 5.02 0 017.09 0 4.98 4.98 0 011.469 3.545 4.98 4.98 0 01-1.469 3.545 4.98 4.98 0 01-3.545 1.468 4.982 4.982 0 01-3.545-1.468 5.088 5.088 0 01-.462-.531z" fill="#fff"></path>
    <path d="M30.373 25.143l-2.87-2.87a.455.455 0 00-.644 0l-.018.018-1.105-1.105a7.993 7.993 0 001.272-3.849.455.455 0 00-.908-.057 7.088 7.088 0 01-7.077 6.644h-.043a7.075 7.075 0 01-4.982-2.075 7.05 7.05 0 01-2.08-5.018 7.05 7.05 0 012.08-5.018 7.106 7.106 0 0110.037 0 7.053 7.053 0 011.968 3.76.455.455 0 00.895-.161 7.96 7.96 0 00-2.22-4.243 7.983 7.983 0 00-1.903-1.409V6.093a.46.46 0 00-.133-.322L17.002.133a.461.461 0 00-.32-.133H1.364C.612 0 0 .612 0 1.365v3.824a.455.455 0 00.91 0V1.365c0-.25.204-.455.455-.455h14.862v4.273c0 .753.612 1.365 1.365 1.365h4.274v2.8a8.04 8.04 0 00-2.762-.52H8.93a.455.455 0 100 .91h6.371a7.963 7.963 0 00-1.815 1.303H8.93a.455.455 0 100 .91h3.737a7.92 7.92 0 00-1.493 3.253H8.93a.455.455 0 100 .91h2.11a8.168 8.168 0 00-.01 1.306h-2.1a.455.455 0 000 .91h2.219a7.92 7.92 0 001.52 3.383H8.93a.455.455 0 100 .91h4.558a7.976 7.976 0 001.812 1.301H8.93a.455.455 0 100 .91h10.086c.967 0 1.933-.174 2.849-.52v5.321a.455.455 0 01-.455.455H1.364a.456.456 0 01-.455-.455V7.01a.455.455 0 00-.91 0v22.625c0 .753.613 1.365 1.365 1.365H21.41c.752 0 1.365-.612 1.365-1.365v-5.734c.203-.107.402-.225.597-.351l1.105 1.104a.459.459 0 00-.018.661l2.871 2.871c.8.835 2.242.834 3.043 0 .835-.8.835-2.242 0-3.043zM17.591 5.638a.456.456 0 01-.455-.455v-3.63l4.085 4.085h-3.63zm6.523 17.367a8.074 8.074 0 001.078-1.077l1.005 1.006-1.077 1.077-1.006-1.006zm5.616 4.538c-.463.481-1.294.481-1.756 0l-2.55-2.55 1.756-1.755 2.55 2.549c.481.462.481 1.293 0 1.756z" fill="#fff"></path>
    <path d="M4.13 12.4h1.99c.562 0 1.018-.456 1.018-1.018v-1.99c0-.561-.456-1.018-1.018-1.018H4.13c-.562 0-1.018.457-1.018 1.018v1.99c0 .562.456 1.018 1.018 1.018zm-.108-3.008c0-.06.048-.108.108-.108h1.99c.06 0 .108.049.108.108v1.99c0 .06-.048.108-.108.108H4.13a.108.108 0 01-.108-.107V9.392zm-.91 8.37c0 .561.456 1.018 1.018 1.018h1.99c.562 0 1.018-.457 1.018-1.018v-1.99c0-.562-.456-1.018-1.018-1.018H4.13c-.562 0-1.018.457-1.018 1.018v1.99zm.91-1.99c0-.06.048-.108.108-.108h1.99c.06 0 .108.048.108.108v1.99c0 .06-.048.108-.108.108H4.13a.108.108 0 01-.108-.108v-1.99zm-.91 8.499c0 .562.456 1.018 1.018 1.018h1.99c.562 0 1.018-.456 1.018-1.018v-1.99c0-.561-.456-1.018-1.018-1.018H4.13c-.562 0-1.018.457-1.018 1.018v1.99zm.91-1.99c0-.06.048-.108.108-.108h1.99c.06 0 .108.049.108.108v1.99c0 .06-.048.108-.108.108H4.13a.108.108 0 01-.108-.108v-1.99z" fill="#fff"></path>
  </symbol>
  <symbol fill="none" xmlns="http://www.w3.org/2000/svg" viewBox="0 0 35 35" id="advantages-7">
    <path d="M34.337 16.144l-2.446-1.412a.501.501 0 10-.501.868l2.446 1.413c.263.184.209.506-.1.593l-.772.148a11.002 11.002 0 00-5.335 2.665l-.749.68c-.206.21-.524.282-.787.125l-12.865-7.427a.501.501 0 00-.501.868l12.864 7.428c.173.099.357.163.544.195l-1.928 3.34a1.84 1.84 0 01-2.512.673l-5.024-2.9-.001-.001-12.116-6.996a1.84 1.84 0 01-.673-2.511l2.011-3.485c.174.303.425.557.736.736l4.123 2.38a.502.502 0 00.501-.868l-4.123-2.38a.998.998 0 01-.468-.61.998.998 0 01.1-.763l2.19-3.793c.554-1.005 1.934-1.375 2.916-.781l17.599 10.16a.502.502 0 00.501-.868L12.368 3.461a3.116 3.116 0 00-2.38-.314A3.117 3.117 0 008.083 4.61l-5.07 8.783a2.844 2.844 0 001.04 3.88l5.561 3.212v2.72c0 1.206.582 2.278 1.48 2.952l-1.06 2.02a2.596 2.596 0 00-3.428 2.017h-2.47a3.687 3.687 0 00-3.203-3.027.836.836 0 00-.933.83v5.67a.836.836 0 00.933.83 3.687 3.687 0 003.24-3.3h2.465a2.596 2.596 0 003.12 1.944.501.501 0 10-.23-.976 1.59 1.59 0 01-1.954-1.547 1.59 1.59 0 011.59-1.589 1.59 1.59 0 011.538 1.988.501.501 0 00.97.25 2.586 2.586 0 00-.776-2.574l1.074-2.05c.414.162.864.251 1.334.251a3.703 3.703 0 003.42-2.304l4.47 2.58c.658.381 1.428.48 2.156.284a2.821 2.821 0 001.399-.867l2.107 1.217a1.673 1.673 0 002.28-.605c1.492.792 3.482.198 4.298-1.28a3.267 3.267 0 00-1.04-4.361c.256-.404.34-.889.214-1.352a1.661 1.661 0 00-.779-1.015l-.11-.064a9.996 9.996 0 011.433-.387c.771-.1 1.709-.309 1.829-1.227a1.313 1.313 0 00-.644-1.368zM1.003 33.471v-5.28a2.686 2.686 0 012.185 2.64c0 1.3-.927 2.404-2.185 2.64zm11.84-11.123l1.227.709a.772.772 0 11-1.227-.709zm.461 3.543a2.69 2.69 0 01-2.687-2.687v-2.14l1.327.765a1.776 1.776 0 00-.414 1.138c0 .979.796 1.775 1.774 1.775.765 0 1.418-.486 1.667-1.165l.874.504a2.696 2.696 0 01-2.54 1.81zm19.261-.473a2.243 2.243 0 01-1.372 1.052 2.24 2.24 0 01-1.554-.142l2.252-3.9c.96.66 1.267 1.963.675 2.99zm-1.237-5.36a.673.673 0 01.245.915l-3.3 5.716a.67.67 0 01-.915.245l-2.06-1.19 2.25-3.897c.897-.849 1.898-1.703 3.012-2.232l.768.443z" fill="#fff"></path>
    <path d="M22.653 16.024a.71.71 0 100-1.42.71.71 0 000 1.42zm2.273 1.254a.71.71 0 100-1.42.71.71 0 000 1.42zM18.669 5.052a.71.71 0 100-1.42.71.71 0 000 1.42zM22.77 8.12a.501.501 0 00.703-.098 6.09 6.09 0 000-7.325.501.501 0 00-.8.606 5.084 5.084 0 010 6.114.501.501 0 00.097.702zm-2.366-1.47c.203.187.52.175.709-.03a3.351 3.351 0 000-4.522.502.502 0 00-.737.68 2.343 2.343 0 010 3.163.501.501 0 00.028.708z" fill="#fff"></path>
  </symbol>
  <symbol fill="none" xmlns="http://www.w3.org/2000/svg" viewBox="0 0 34 34" id="advantages-8">
    <path d="M8.766 8.5a.531.531 0 00.53-.531v-4.25a1.595 1.595 0 011.595-1.594h2.921a.531.531 0 000-1.063h-2.921A2.66 2.66 0 008.234 3.72v4.25a.531.531 0 00.532.531zm10.817 15.938a.531.531 0 00-.531-.532h-7.63v-1.05a.531.531 0 00-1.063 0v1.581a.53.53 0 00.532.532h8.16a.53.53 0 00.532-.532z" fill="#fff"></path>
    <path d="M29.898 16.662l-3.601-3.6V3.718a2.66 2.66 0 00-2.656-2.656h-7.172a.531.531 0 100 1.062h7.172a1.596 1.596 0 011.593 1.594v14.875a.531.531 0 101.063 0v-4.03l2.85 2.85a4.75 4.75 0 011.4 3.38v11.081H19.922v-4.178a2.732 2.732 0 012.729-2.728.532.532 0 00.375-.907l-4.47-4.47a1.86 1.86 0 112.63-2.63l6.061 6.062a.531.531 0 00.751-.751l-3.826-3.827V3.719a.531.531 0 00-.531-.531h-2.657a.531.531 0 00-.53.53.532.532 0 01-.532.532h-5.313a.532.532 0 01-.53-.531.53.53 0 00-.532-.531H10.89a.531.531 0 00-.532.53v5.313H3.984a1.595 1.595 0 00-1.593 1.594v9.563a1.595 1.595 0 001.593 1.593h4.25v4.782a2.66 2.66 0 002.657 2.656h7.968v3.187a.531.531 0 00.532.532h11.687a.532.532 0 00.531-.532V20.794a5.805 5.805 0 00-1.711-4.132zM3.984 10.094h17v1.062H3.454v-.531a.532.532 0 01.53-.531zm13.282 18.062H10.89a1.595 1.595 0 01-1.594-1.593V21.78h7.991a.532.532 0 100-1.062H3.984a.532.532 0 01-.53-.532v-4.78H17.82a.531.531 0 100-1.063H3.453v-2.125h17.531v2.656a.531.531 0 101.063 0V7.969a.531.531 0 00-1.063 0V9.03h-9.562V4.25h1.685a1.597 1.597 0 001.502 1.063h5.313a1.596 1.596 0 001.503-1.063h1.684v13.134l-1.172-1.173a2.922 2.922 0 10-4.132 4.132l3.73 3.73a3.799 3.799 0 00-2.676 3.624v.46h-1.593z" fill="#fff"></path>
    <path d="M7.703 16.469H5.047a.531.531 0 00-.531.531v2.125a.532.532 0 00.53.531h2.657a.531.531 0 00.531-.531V17a.532.532 0 00-.53-.531zm-.531 2.125H5.578V17.53h1.594v1.063zm11.688 7.969a1.594 1.594 0 10-3.188 0 1.594 1.594 0 003.187 0zm-1.594.53a.531.531 0 110-1.061.531.531 0 010 1.062z" fill="#fff"></path>
  </symbol>
  <symbol fill="none" xmlns="http://www.w3.org/2000/svg" viewBox="0 0 10 17" id="arrow-left--slider">
    <path d="M9 1L1.5 8.5 9 16" stroke="red" stroke-width="2"></path>
  </symbol>
  <symbol fill="none" xmlns="http://www.w3.org/2000/svg" viewBox="0 0 10 17" id="arrow-right-slider">
    <path d="M1 1l7.5 7.5L1 16" stroke="red" stroke-width="2"></path>
  </symbol>
  <symbol fill="none" xmlns="http://www.w3.org/2000/svg" viewBox="0 0 6 3" id="arrow-select-telepnone">
    <path d="M3 3L0 0h6L3 3z" fill="#C33"></path>
  </symbol>
  <symbol fill="none" xmlns="http://www.w3.org/2000/svg" viewBox="0 0 24 19" id="burger">
    <path fill="#C33" d="M0 0h24v2H0zm9 8h15v2H9z"></path>
    <path fill="#2C2C2C" d="M0 17h24v2H0z"></path>
  </symbol>
  <symbol fill="none" xmlns="http://www.w3.org/2000/svg" viewBox="0 0 63 63" id="camera">
    <g clip-path="url(#clip0_59_327)" fill="#CF3535">
      <path d="M62.57 27.513L24.178 5.35a4.805 4.805 0 00-6.554 1.755l-4.42 7.655-2.942 5.096a4.805 4.805 0 001.757 6.555l13.163 7.6-2.047 3.49a3.089 3.089 0 01-2.654 1.52h-7.685v-5.857a.861.861 0 00-.862-.861H7.26V31.19a3.82 3.82 0 00-3.815-3.814H.861a.861.861 0 00-.861.861v29.195a.86.86 0 00.861.862h2.584A3.819 3.819 0 007.26 54.48v-2.736h4.675a.861.861 0 00.862-.861V46.65h7.685a10.747 10.747 0 009.234-5.289l2.074-3.535 7.215 4.165a4.774 4.774 0 003.641.48 4.77 4.77 0 002.084-1.176 7.176 7.176 0 004.9.416 7.193 7.193 0 003.923-2.658l1.764 1.018a.86.86 0 001.177-.315l6.389-11.065a.863.863 0 00-.314-1.178zM5.536 54.48a2.094 2.094 0 01-2.092 2.092H1.723V29.1h1.722a2.094 2.094 0 012.092 2.091v23.29zm5.537-4.458H7.26V34.025h3.814v15.997zM28.23 40.49a9.017 9.017 0 01-7.748 4.438h-7.685v-4.184h7.685a4.817 4.817 0 004.14-2.371l2.055-3.5 3.623 2.091-2.07 3.526zm11.637.01L12.882 24.92a3.08 3.08 0 01-1.127-4.203l2.51-4.35 24.731 14.279 7.583 4.377-2.511 4.352-.003.005a3.037 3.037 0 01-.218.32v.004a3.079 3.079 0 01-3.98.795zm9.32-.453a5.49 5.49 0 01-3.414-.18l2.3-3.983 3.984 2.3a5.49 5.49 0 01-2.87 1.863zm6.25-1.9l-5.571-3.216-1.68-.97-19.017-10.979-14.041-8.106 3.99-6.91a3.08 3.08 0 014.201-1.125l37.643 21.734-5.526 9.572z"></path>
      <path d="M51.755 33.465a3.292 3.292 0 002.514.331 3.313 3.313 0 10-2.514-.33zm.28-3.663a1.579 1.579 0 01.966-.738 1.591 1.591 0 11-.965.74v-.002zm-29.64-5.06l-7.059-4.076a.86.86 0 10-.86 1.492l7.06 4.075a.86.86 0 00.858-1.49z"></path>
    </g>
    <defs>
      <clipPath id="clip0_59_327">
        <path fill="#fff" d="M0 0h63v63H0z"></path>
      </clipPath>
    </defs>
  </symbol>
  <symbol fill="none" xmlns="http://www.w3.org/2000/svg" viewBox="0 0 12 12" id="footer-address">
    <path d="M9.5 4.5a3.5 3.5 0 10-7 0c0 .694.205 1.338.553 1.883h-.004L6 11l2.951-4.617h-.003A3.49 3.49 0 009.5 4.5zM6 6a1.5 1.5 0 110-3 1.5 1.5 0 010 3z" fill="#fff"></path>
  </symbol>
  <symbol fill="none" xmlns="http://www.w3.org/2000/svg" viewBox="0 0 12 12" id="footer-call">
    <path d="M9.164 11.25c-.457 0-1.1-.166-2.062-.703-1.17-.657-2.076-1.262-3.24-2.423C2.74 7.002 2.194 6.276 1.43 4.885.566 3.315.714 2.492.878 2.14c.196-.42.485-.672.86-.921a4.133 4.133 0 01.735-.385c.116-.052.292-.131.514-.047.15.056.282.17.49.375.425.42 1.007 1.355 1.222 1.815.144.31.24.514.24.743 0 .268-.135.475-.3.699-.03.042-.06.082-.09.12-.178.235-.217.303-.192.424.053.243.442.966 1.083 1.605.64.64 1.343 1.005 1.587 1.057.126.027.195-.014.437-.199.035-.026.07-.054.108-.081.25-.186.447-.317.71-.317.229 0 .424.098.747.262.422.212 1.386.787 1.808 1.213.206.207.32.34.376.488.085.223.005.398-.046.516a4.128 4.128 0 01-.387.734c-.25.373-.502.661-.923.857a1.58 1.58 0 01-.693.152z" fill="#fff"></path>
  </symbol>
  <symbol fill="none" xmlns="http://www.w3.org/2000/svg" viewBox="0 0 20 20" id="footer-facebook">
    <path d="M10 0C4.487 0 0 4.487 0 10s4.487 10 10 10 10-4.487 10-10S15.513 0 10 0zm0 1.667A8.32 8.32 0 0118.333 10a8.314 8.314 0 01-7.093 8.233V12.43h2.373l.373-2.41H11.24V8.702c0-1 .33-1.89 1.265-1.89h1.504V4.71c-.264-.036-.823-.113-1.88-.113-2.207 0-3.5 1.165-3.5 3.82v1.602H6.361v2.411h2.268v5.782A8.312 8.312 0 011.667 10 8.32 8.32 0 0110 1.667z" fill="#fff"></path>
  </symbol>
  <symbol fill="none" xmlns="http://www.w3.org/2000/svg" viewBox="0 0 12 12" id="footer-mail">
    <path d="M11 2H1v8h10V2zm-1 2L6 6.5 2 4V3l4 2.5L10 3v1z" fill="#fff"></path>
  </symbol>
  <symbol fill="none" xmlns="http://www.w3.org/2000/svg" viewBox="0 0 20 20" id="footer-youtube">
    <g clip-path="url(#clip0_59_2316)" stroke="#828282" stroke-width="2" stroke-linecap="round" stroke-linejoin="round">
      <path d="M18.784 5.35a2.316 2.316 0 00-1.617-1.666c-1.434-.35-7.167-.35-7.167-.35s-5.733 0-7.167.383a2.317 2.317 0 00-1.616 1.666 24.166 24.166 0 00-.384 4.409 24.22 24.22 0 00.384 4.441 2.317 2.317 0 001.616 1.6c1.434.384 7.167.384 7.167.384s5.733 0 7.167-.383a2.316 2.316 0 001.616-1.667c.26-1.444.39-2.908.384-4.375.01-1.49-.12-2.976-.384-4.442v0z"></path>
      <path d="M8.125 12.517l4.792-2.725-4.792-2.725v5.45z"></path>
    </g>
    <defs>
      <clipPath id="clip0_59_2316">
        <path fill="#fff" d="M0 0h20v20H0z"></path>
      </clipPath>
    </defs>
  </symbol>
  <symbol fill="none" xmlns="http://www.w3.org/2000/svg" viewBox="0 0 14 12" id="mail">
    <path d="M13.667.667H.333v10.666h13.334V.667zm-1.333 2.666L7 6.667 1.667 3.333V2L7 5.333 12.334 2v1.333z" fill="#C33"></path>
  </symbol>
  <symbol fill="none" xmlns="http://www.w3.org/2000/svg" viewBox="0 0 10 14" id="maps">
    <path d="M9.667 5A4.667 4.667 0 00.333 5c0 .925.274 1.785.737 2.51h-.005L5 13.667 8.935 7.51h-.004c.48-.75.736-1.62.736-2.51zM5 7a2 2 0 110-4 2 2 0 010 4z" fill="#C33"></path>
  </symbol>
  <symbol fill="none" xmlns="http://www.w3.org/2000/svg" viewBox="0 0 15 15" id="modal-cross">
    <path d="M14 1L7.5 7.5M1 14l6.5-6.5m0 0L1 1l13 13" stroke="#A2A2A2" stroke-width="2"></path>
  </symbol>
  <symbol fill="none" xmlns="http://www.w3.org/2000/svg" viewBox="0 0 58 53" id="price-border">
    <g filter="url(#filter0_d_59_820)">
      <rect x="9.1" y="9.557" width="497.528" height="195.732" rx="9" stroke="#CF3535" stroke-width="2"></rect>
    </g>
    <defs>
      <filter id="filter0_d_59_820" x="-3.9" y=".557" width="523.528" height="221.732" filterUnits="userSpaceOnUse" color-interpolation-filters="sRGB">
        <feFlood flood-opacity="0" result="BackgroundImageFix"></feFlood>
        <feColorMatrix in="SourceAlpha" values="0 0 0 0 0 0 0 0 0 0 0 0 0 0 0 0 0 0 127 0" result="hardAlpha"></feColorMatrix>
        <feOffset dy="4"></feOffset>
        <feGaussianBlur stdDeviation="6"></feGaussianBlur>
        <feColorMatrix values="0 0 0 0 0 0 0 0 0 0 0 0 0 0 0 0 0 0 0.09 0"></feColorMatrix>
        <feBlend in2="BackgroundImageFix" result="effect1_dropShadow_59_820"></feBlend>
        <feBlend in="SourceGraphic" in2="effect1_dropShadow_59_820" result="shape"></feBlend>
      </filter>
    </defs>
  </symbol>
  <symbol fill="none" xmlns="http://www.w3.org/2000/svg" viewBox="0 0 18 18" id="questions-minus">
    <path d="M9 0C4.036 0 0 4.036 0 9s4.036 9 9 9 9-4.036 9-9-4.036-9-9-9zm3.8 10.554H5.2a1.617 1.617 0 010-3.234h2.183c-.893 0 .617 0 0 0 1.117-.002.893 0 0 0l3.234-.004H12.8c.893 0 1.618.724 1.618 1.617a1.613 1.613 0 01-1.618 1.62z" fill="#fff"></path>
  </symbol>
  <symbol fill="none" xmlns="http://www.w3.org/2000/svg" viewBox="0 0 18 18" id="questions-plus">
    <path d="M9 0C4.036 0 0 4.036 0 9s4.036 9 9 9 9-4.036 9-9-4.036-9-9-9zm3.8 10.554h-2.183v2.183a1.617 1.617 0 01-3.234 0v-2.183H5.2a1.617 1.617 0 010-3.234h2.183V5.133a1.617 1.617 0 013.234 0v2.183H12.8c.893 0 1.618.724 1.618 1.617a1.613 1.613 0 01-1.618 1.62z" fill="#F54545"></path>
  </symbol>
  <symbol fill="none" xmlns="http://www.w3.org/2000/svg" viewBox="0 0 39 39" id="questions-questions">
    <g clip-path="url(#clip0_59_2337)" fill="#fff">
      <path d="M37.86 14.903h-8.813a13 13 0 00.004-.342c0-8.01-6.516-14.526-14.525-14.526C6.516.035 0 6.551 0 14.561c0 2.25.527 4.485 1.527 6.488L.485 27.125a1.14 1.14 0 001.43 1.291l5.096-1.423a14.45 14.45 0 003.04 1.389v4.362c0 .63.51 1.14 1.14 1.14H26.89l2.604 4.51a1.14 1.14 0 001.974 0l2.604-4.51h3.789c.63 0 1.14-.51 1.14-1.14V16.043c0-.63-.51-1.14-1.14-1.14zM7.19 24.619c-.102 0-.205.014-.306.042l-3.849 1.074.803-4.677a1.14 1.14 0 00-.118-.73 12.264 12.264 0 01-1.44-5.767c0-6.752 5.493-12.246 12.245-12.246 6.752 0 12.245 5.494 12.245 12.246 0 6.752-5.493 12.245-12.245 12.245-2.395 0-4.715-.691-6.71-2a1.14 1.14 0 00-.625-.187zm29.529 6.985h-3.307a1.14 1.14 0 00-.988.57l-1.945 3.37-1.945-3.37a1.14 1.14 0 00-.987-.57H12.332V28.92c.722.11 1.454.168 2.194.168 7.114 0 13.05-5.142 14.288-11.904h7.906v14.421z"></path>
      <path d="M7.945 13.221h13.162a1.14 1.14 0 000-2.28H7.944a1.14 1.14 0 000 2.28zm14.302 3.822c0-.63-.51-1.14-1.14-1.14H7.944a1.14 1.14 0 000 2.28h13.162c.63 0 1.14-.51 1.14-1.14z"></path>
    </g>
    <defs>
      <clipPath id="clip0_59_2337">
        <path fill="#fff" d="M0 0h39v39H0z"></path>
      </clipPath>
    </defs>
  </symbol>
  <symbol fill="none" xmlns="http://www.w3.org/2000/svg" viewBox="0 0 16 16" id="time">
    <path d="M8 1.333A6.674 6.674 0 001.333 8 6.674 6.674 0 008 14.667 6.674 6.674 0 0014.667 8 6.674 6.674 0 008 1.333z" fill="#C33"></path>
    <path d="M8.667 4.667H7.334v4h4V7.333H8.667V4.667z" fill="#fff"></path>
  </symbol>
  <symbol fill="none" xmlns="http://www.w3.org/2000/svg" viewBox="0 0 43 48" id="video-border">
    <mask id="a" maskUnits="userSpaceOnUse" x="0" y="0" width="43" height="48">
      <path d="M26 48H0V0h42.5v30L26 48z" fill="#C4C4C4"></path>
    </mask>
    <g filter="url(#filter0_d_59_300)" mask="url(#a)">
      <rect x="7" y="13" width="368" height="161" rx="9" stroke="#CF3535" stroke-width="2"></rect>
    </g>
    <defs>
      <filter id="filter0_d_59_300" x="-6" y="4" width="394" height="187" filterUnits="userSpaceOnUse" color-interpolation-filters="sRGB">
        <feFlood flood-opacity="0" result="BackgroundImageFix"></feFlood>
        <feColorMatrix in="SourceAlpha" values="0 0 0 0 0 0 0 0 0 0 0 0 0 0 0 0 0 0 127 0" result="hardAlpha"></feColorMatrix>
        <feOffset dy="4"></feOffset>
        <feGaussianBlur stdDeviation="6"></feGaussianBlur>
        <feColorMatrix values="0 0 0 0 0 0 0 0 0 0 0 0 0 0 0 0 0 0 0.09 0"></feColorMatrix>
        <feBlend in2="BackgroundImageFix" result="effect1_dropShadow_59_300"></feBlend>
        <feBlend in="SourceGraphic" in2="effect1_dropShadow_59_300" result="shape"></feBlend>
      </filter>
    </defs>
  </symbol>
  <symbol fill="none" xmlns="http://www.w3.org/2000/svg" viewBox="0 0 47 43" id="why-canera">
    <path d="M31.798 12.907c2.695 0 4.888 2.648 4.888 5.903 0 3.255-2.193 5.903-4.888 5.903s-4.888-2.648-4.888-5.903c0-3.255 2.193-5.903 4.888-5.903zm0 10.441c1.943 0 3.523-2.036 3.523-4.538 0-2.502-1.58-4.538-3.523-4.538s-3.523 2.036-3.523 4.538c0 2.502 1.58 4.538 3.523 4.538zM13.903 36.014a2.299 2.299 0 011.02-1.448 2.298 2.298 0 011.743-.304 2.316 2.316 0 011.753 2.763 2.318 2.318 0 01-2.763 1.752 2.316 2.316 0 01-1.753-2.763zm2.051 1.431a.95.95 0 10-.718-1.133.95.95 0 00.718 1.133z" fill="#CF3535"></path>
    <path d="M4.31 31.581h5.96a.683.683 0 010 1.365H4.31a2.95 2.95 0 00-2.945 2.947 2.95 2.95 0 002.946 2.946h7.705a4.507 4.507 0 01-.358-3l1.607-7.182c-2.04-.658-3.838-2.085-5.065-4.089H6.255a5.122 5.122 0 01-5.116-5.116v-7.748C1.139 5.25 6.389 0 12.843 0h22.043c2.188 0 4.323.608 6.173 1.758.32.2.427.626.219.94-.314.473-.828.29-.94.22a10.31 10.31 0 00-5.452-1.553c-4.604 0-8.514 3.025-9.849 7.191h6.76c5.095 0 9.24 4.6 9.24 10.254 0 1.571-.321 3.06-.893 4.393h.99a4.096 4.096 0 004.09-4.091v-7.408c0-2.695-1.03-5.246-2.902-7.183a.683.683 0 01.982-.949 11.646 11.646 0 013.286 8.132v7.408a5.462 5.462 0 01-5.456 5.456h-1.696c-1.664 2.712-4.468 4.496-7.64 4.496h-4.75l-2.177 9.73a4.514 4.514 0 01-2 2.845c-.737.468-1.77.875-3.426.597l-4.345-.972a4.523 4.523 0 01-2.053-1.06H4.31A4.316 4.316 0 010 35.892a4.316 4.316 0 014.31-4.31zM29.405 1.365H12.843c-5.701 0-10.34 4.638-10.34 10.339v7.748a3.756 3.756 0 003.752 3.751H19.43a3.756 3.756 0 003.752-3.751v-7.748c0-4.474 2.524-8.37 6.222-10.34zM24.701 9.92c-.24.772-.154 2.53-.154 2.53a9.568 9.568 0 012.637-2.53h-2.483zm14.97 8.889c0-4.901-3.532-8.889-7.873-8.889-3.16 0-6.004 2.121-7.245 5.405l-.006-.002v4.128c0 .629-.115 1.23-.323 1.788.957 3.813 4.044 6.459 7.574 6.459 4.341 0 7.874-3.988 7.874-8.89zm-16.383 3.997a5.105 5.105 0 01-3.858 1.761H9.85c1.489 1.975 3.674 3.13 5.996 3.13h11.343c-1.723-1.098-3.107-2.801-3.9-4.89zm-3.545 18.098a3.182 3.182 0 003.796-2.408l2.11-9.433h-3.164l-1.96 8.759a4.51 4.51 0 01-1.96 2.818l1.178.264zm-4.345-.973c2.488.634 3.61-1.579 3.795-2.407l1.893-8.461h-5.24a8.38 8.38 0 01-1.252-.095l-1.604 7.167c-.185.829-.05 3.17 2.408 3.796z" fill="#CF3535"></path>
    <path d="M33.27 21.093c.436-.61.686-1.441.686-2.283 0-.97-.33-1.916-.885-2.53a.682.682 0 10-1.013.915c.258.285.533.86.533 1.615 0 .563-.157 1.105-.431 1.488-.22.306-.161.75.157.952.465.294.82.029.953-.157z" fill="#CF3535"></path>
  </symbol>
  <symbol fill="none" xmlns="http://www.w3.org/2000/svg" viewBox="0 0 37 41" id="advantages-1">
    <path d="M25.31 17.121a3.716 3.716 0 001.108-2.648 3.732 3.732 0 00-3.729-3.728 3.734 3.734 0 00-3.512 2.476 3.723 3.723 0 00-1.354 0 3.735 3.735 0 00-3.513-2.476 3.732 3.732 0 00-3.728 3.728c0 1.035.424 1.972 1.107 2.648a5.346 5.346 0 00-2.694 4.624.6.6 0 001.201 0 4.134 4.134 0 012.648-3.844 3.708 3.708 0 002.144.237c.19.531.497 1.007.89 1.396a5.305 5.305 0 00-2.693 4.624.6.6 0 101.201 0c0-1.657.986-3.145 2.513-3.79a.603.603 0 00.113-.064 3.706 3.706 0 002.954.01 4.136 4.136 0 012.647 3.844.6.6 0 101.201 0 5.35 5.35 0 00-2.693-4.623c.393-.39.7-.865.89-1.397a3.708 3.708 0 002.145-.238 4.134 4.134 0 012.647 3.845.6.6 0 001.201 0 5.345 5.345 0 00-2.693-4.624zm-10.538-.234l.001.07a2.526 2.526 0 11-.463-5.01c1.075 0 2.028.682 2.382 1.68a3.73 3.73 0 00-1.92 3.26zm1.2 0A2.53 2.53 0 0118.5 14.36a2.53 2.53 0 012.527 2.527 2.53 2.53 0 01-2.527 2.527 2.53 2.53 0 01-2.527-2.527zm6.254.07l.002-.07a3.73 3.73 0 00-1.92-3.26 2.531 2.531 0 012.381-1.68 2.53 2.53 0 012.528 2.526 2.53 2.53 0 01-2.99 2.484z" fill="#fff"></path>
    <path d="M34.054 25.956V15.04a3.239 3.239 0 002.633-3.178 3.238 3.238 0 00-3.234-3.234c-.98 0-1.86.439-2.453 1.13l-9.448-5.456A3.238 3.238 0 0018.5 0a3.238 3.238 0 00-3.052 4.302L6 9.758a3.227 3.227 0 00-2.453-1.13 3.238 3.238 0 00-3.234 3.234 3.239 3.239 0 002.633 3.178v10.916a3.239 3.239 0 00-2.633 3.178 3.238 3.238 0 003.234 3.234c.979 0 1.856-.438 2.45-1.127l9.45 5.457A3.238 3.238 0 0018.5 41a3.238 3.238 0 003.053-4.302l9.45-5.457a3.227 3.227 0 002.45 1.127 3.238 3.238 0 003.235-3.234 3.239 3.239 0 00-2.633-3.178zM33.453 9.83c1.12 0 2.033.912 2.033 2.033s-.912 2.033-2.033 2.033a2.035 2.035 0 01-2.033-2.033c0-1.12.912-2.033 2.033-2.033zM18.5 1.201c1.12 0 2.033.912 2.033 2.033 0 1.12-.91 2.031-2.03 2.033h-.006a2.035 2.035 0 01-2.03-2.033c0-1.12.912-2.033 2.033-2.033zM1.514 11.862c0-1.12.912-2.033 2.033-2.033s2.033.912 2.033 2.033-.912 2.033-2.033 2.033a2.035 2.035 0 01-2.033-2.033zm2.033 19.305a2.035 2.035 0 01-2.033-2.033c0-1.121.912-2.033 2.033-2.033s2.033.912 2.033 2.033a2.035 2.035 0 01-2.033 2.033zM18.5 39.799a2.035 2.035 0 01-2.033-2.033c0-1.121.912-2.033 2.033-2.033 1.12 0 2.033.912 2.033 2.033 0 1.12-.912 2.033-2.033 2.033zm2.45-4.14a3.234 3.234 0 00-1.85-1.07v-2.314a.6.6 0 10-1.2 0v2.314a3.234 3.234 0 00-1.85 1.07l-9.451-5.457a3.217 3.217 0 000-2.138l2.004-1.157a.6.6 0 00-.6-1.04l-2.007 1.158a3.233 3.233 0 00-1.849-1.069V15.04a3.233 3.233 0 001.85-1.07l2.008 1.16a.597.597 0 00.82-.22.6.6 0 00-.219-.82L6.6 12.931a3.22 3.22 0 00.001-2.133l9.45-5.456a3.234 3.234 0 001.849 1.07v2.313a.6.6 0 001.201 0V6.411a3.234 3.234 0 001.85-1.07l9.45 5.457a3.218 3.218 0 000 2.133l-2.007 1.16a.6.6 0 10.6 1.04l2.01-1.16c.469.544 1.115.93 1.849 1.069v10.916a3.233 3.233 0 00-1.849 1.07l-2.006-1.16a.6.6 0 00-.6 1.04l2.004 1.158a3.22 3.22 0 000 2.138l-9.451 5.456zm12.503-4.492a2.035 2.035 0 01-2.033-2.033c0-1.121.912-2.033 2.033-2.033 1.12 0 2.033.912 2.033 2.033a2.035 2.035 0 01-2.033 2.033z" fill="#fff"></path>
    <path d="M23.53 26.705h-1.787a.6.6 0 100 1.202h1.787a.6.6 0 100-1.202zm0 2.353H13.47a.6.6 0 000 1.2h10.06a.6.6 0 100-1.2zm-10.06-1.151h.008a.6.6 0 100-1.202h-.009a.6.6 0 000 1.202zm2.088 0a.6.6 0 100-1.202h-.008a.6.6 0 100 1.202h.008zm2.08 0a.6.6 0 100-1.202h-.008a.6.6 0 100 1.202h.008z" fill="#fff"></path>
  </symbol>
  <symbol fill="none" xmlns="http://www.w3.org/2000/svg" viewBox="0 0 35 35" id="advantages-2">
    <path d="M32.083.583h-24.5A2.92 2.92 0 004.667 3.5v22.75H.583a.583.583 0 00-.583.583V28a2.92 2.92 0 002.917 2.917h18.097v2.916a.583.583 0 00.933.467l1.984-1.487 1.983 1.487a.59.59 0 00.611.058.583.583 0 00.322-.525v-2.916h.57A2.92 2.92 0 0030.333 28V5.25h4.084A.583.583 0 0035 4.667V3.5A2.92 2.92 0 0032.083.583zM21.014 29.75H2.917A1.75 1.75 0 011.167 28v-.583h19.847v2.333zm4.667 2.917l-1.4-1.05a.583.583 0 00-.7 0l-1.4 1.05V26.15c.112.01.226.007.338-.006a1.777 1.777 0 002.81 0c.116.014.233.016.35.006l.002 6.516zm.75-9.345a.582.582 0 00-.331.8.607.607 0 01-.806.81.583.583 0 00-.8.331.604.604 0 01-1.14 0 .583.583 0 00-.801-.331.606.606 0 01-.805-.81.583.583 0 00-.331-.8.607.607 0 010-1.144.583.583 0 00.331-.8.606.606 0 01.805-.81.584.584 0 00.8-.331.604.604 0 011.14 0 .584.584 0 00.801.331.606.606 0 01.806.81.582.582 0 00.33.8.608.608 0 010 1.144zm3.274-21.5c-.033.048-.062.097-.093.146-.062.1-.118.203-.168.31-.026.058-.05.111-.073.168-.043.115-.08.232-.109.35-.013.055-.03.107-.04.163-.036.178-.054.36-.055.541V28a1.75 1.75 0 01-1.75 1.75 1.736 1.736 0 01-.57-.107v-4.058a1.75 1.75 0 00.467-1.43 1.782 1.782 0 000-2.81 1.78 1.78 0 00-1.983-1.99 1.777 1.777 0 00-2.81 0 1.78 1.78 0 00-1.983 1.99 1.782 1.782 0 000 2.81c-.069.53.108 1.063.48 1.447v.648H5.832V3.5c0-.966.784-1.75 1.75-1.75H29.75c-.016.023-.029.049-.045.073zm4.128 2.261h-3.5V3.5a1.75 1.75 0 013.5 0v.583z" fill="#fff"></path>
    <path d="M19.25 5.25h2.333v1.167H19.25V5.25zm-5.834 0h4.667v1.167h-4.666V5.25zm-1.75 2.917h11.667v1.166H11.667V8.167zm-2.916 3.5h2.917v1.166H8.75v-1.166zm0 2.916h6.417v1.167H8.75v-1.167zm4.084-2.916H26.25v1.166H12.834v-1.166zm3.5 2.916h9.916v1.167h-9.916v-1.167zM8.75 17.5h11.667v1.167H8.75V17.5zm0 2.917h9.917v1.166H8.75v-1.166z" fill="#fff"></path>
  </symbol>
  <symbol fill="none" xmlns="http://www.w3.org/2000/svg" viewBox="0 0 38 38" id="advantages-3">
    <path d="M35.34 17.172l-.984-3.937a.595.595 0 00.47-.582v-.634a2.502 2.502 0 00-2.498-2.5h-4.483V8.212c0-.678-.551-1.23-1.23-1.23H3.769c-.678 0-1.23.552-1.23 1.23V19a.595.595 0 101.19 0V8.21a.04.04 0 01.04-.039h22.848a.04.04 0 01.04.04V19a.595.595 0 001.19 0v-.675h7.02c.863 0 1.596.567 1.848 1.348h-1.85a.595.595 0 00-.595.595v1.27c0 1.028.837 1.864 1.865 1.864h.674v2.618h-1.556a3.774 3.774 0 00-3.561-2.539 3.774 3.774 0 00-3.561 2.539h-.287v-4.482a.595.595 0 00-1.19 0v4.482H14.311a3.774 3.774 0 00-3.562-2.539 3.774 3.774 0 00-3.56 2.539h-3.42a.04.04 0 01-.04-.04v-1.309h2.578a.595.595 0 000-1.19H.595a.595.595 0 100 1.19h1.944v1.31a1.23 1.23 0 001.23 1.229h3.213v.04a3.773 3.773 0 003.767 3.768 3.773 3.773 0 003.769-3.769l-.001-.04h13.409l-.001.04a3.773 3.773 0 003.768 3.769 3.773 3.773 0 003.768-3.769v-.04h1.944a.595.595 0 00.595-.594v-6.347a3.138 3.138 0 00-2.66-3.097zm-7.495-6.462h4.483a1.31 1.31 0 011.309 1.309v.04h-5.791v-1.35zm0 6.426v-3.888h5.288l.971 3.888h-6.258zM10.75 29.829a2.581 2.581 0 01-2.578-2.579 2.581 2.581 0 012.579-2.578 2.581 2.581 0 012.578 2.578 2.581 2.581 0 01-2.579 2.579zm20.944 0a2.581 2.581 0 01-2.578-2.579 2.581 2.581 0 012.578-2.578 2.581 2.581 0 012.578 2.578 2.581 2.581 0 01-2.578 2.579zm5.117-7.616h-.674a.675.675 0 01-.675-.674v-.675h1.349v1.349z" fill="#fff"></path>
    <path d="M10.75 26.02a1.231 1.231 0 000 2.46 1.231 1.231 0 000-2.46zm20.943 0a1.231 1.231 0 000 2.46 1.231 1.231 0 000-2.46zm-6.981-2.538h-8.885a.595.595 0 000 1.19h8.885a.595.595 0 000-1.19zM9.48 20.944H1.865a.595.595 0 000 1.19H9.48a.595.595 0 000-1.19zm11.21-8.077a.595.595 0 00-.841 0l-5.292 5.291-2.752-2.752a.595.595 0 10-.842.841l3.174 3.174a.593.593 0 00.841 0l5.712-5.712a.595.595 0 000-.842z" fill="#fff"></path>
  </symbol>
</svg>